HIERARCHY
ROOT Hips
{
  OFFSET 0.0476744 92.3392 -0.0146736
  CHANNELS 6 Xposition Yposition Zposition Zrotation Xrotation Yrotation
  JOINT Spine
  {
    OFFSET 0 4.73261 7.09892
    CHANNELS 3 Zrotation Xrotation Yrotation
    JOINT Spine1
    {
      OFFSET 0 0 9.46521
      CHANNELS 3 Zrotation Xrotation Yrotation
      JOINT Spine2
      {
        OFFSET 0 0 9.46522
        CHANNELS 3 Zrotation Xrotation Yrotation
        JOINT Spine3
        {
          OFFSET 0 0 9.46521
          CHANNELS 3 Zrotation Xrotation Yrotation
          JOINT Neck
          {
            OFFSET 0 -3.54946 24.8462
            CHANNELS 3 Zrotation Xrotation Yrotation
            JOINT Head
            {
              OFFSET 0 0 13.0147
              CHANNELS 3 Zrotation Xrotation Yrotation
              End Site
              {
                OFFSET 0 0 15.3218
              }
            }
          }
          JOINT RightShoulder
          {
            OFFSET -3.19949 -5.33248 17.2772
            CHANNELS 3 Zrotation Xrotation Yrotation
            JOINT RightArm
            {
              OFFSET 15.8908 0 -2.56059e-05
              CHANNELS 3 Zrotation Xrotation Yrotation
              JOINT RightForeArm
              {
                OFFSET 29.5437 0 3.38067e-05
                CHANNELS 3 Zrotation Xrotation Yrotation
                JOINT RightHand
                {
                  OFFSET 23.2652 0 0
                  CHANNELS 3 Zrotation Xrotation Yrotation
                  JOINT RightHandEnd
                  {
                    OFFSET 6.96115 0 0
                    CHANNELS 3 Zrotation Xrotation Yrotation
                    End Site
                    {
                      OFFSET 6.96115 0 0
                    }
                  }
                  JOINT RightHandThumb1
                  {
                    OFFSET 2.78446 -4.64077 1.85631
                    CHANNELS 3 Zrotation Xrotation Yrotation
                    JOINT RightHandThumb2
                    {
                      OFFSET 6.96116 0 1.38192e-05
                      CHANNELS 3 Zrotation Xrotation Yrotation
                      End Site
                      {
                        OFFSET 0 0 0
                      }
                    }
                  }
                }
              }
            }
          }
          JOINT LeftShoulder
          {
            OFFSET 3.19949 -5.33248 17.2772
            CHANNELS 3 Zrotation Xrotation Yrotation
            JOINT LeftArm
            {
              OFFSET 15.8908 0 1.61023e-05
              CHANNELS 3 Zrotation Xrotation Yrotation
              JOINT LeftForeArm
              {
                OFFSET 29.5437 0 2.38095e-05
                CHANNELS 3 Zrotation Xrotation Yrotation
                JOINT LeftHand
                {
                  OFFSET 23.2652 0 0
                  CHANNELS 3 Zrotation Xrotation Yrotation
                  JOINT LeftHandEnd
                  {
                    OFFSET 6.96115 0 0
                    CHANNELS 3 Zrotation Xrotation Yrotation
                    End Site
                    {
                      OFFSET 6.96115 0 0
                    }
                  }
                  JOINT LeftHandThumb1
                  {
                    OFFSET 2.78446 -4.64077 -1.8563
                    CHANNELS 3 Zrotation Xrotation Yrotation
                    JOINT LeftHandThumb2
                    {
                      OFFSET 6.96115 0 0
                      CHANNELS 3 Zrotation Xrotation Yrotation
                      End Site
                      {
                        OFFSET 0 0 0
                      }
                    }
                  }
                }
              }
            }
          }
        }
      }
    }
  }
  JOINT RightUpLeg
  {
    OFFSET -9.49185 0 -2.77289
    CHANNELS 3 Zrotation Xrotation Yrotation
    JOINT RightLeg
    {
      OFFSET 41.2118 -4.40531e-05 2.52115e-05
      CHANNELS 3 Zrotation Xrotation Yrotation
      JOINT RightFoot
      {
        OFFSET 45.6091 1.31933e-05 0
        CHANNELS 3 Zrotation Xrotation Yrotation
        JOINT RightToeBase
        {
          OFFSET 17.0969 0 0
          CHANNELS 3 Zrotation Xrotation Yrotation
          End Site
          {
            OFFSET 7.67878 0 0
          }
        }
      }
    }
  }
  JOINT LeftUpLeg
  {
    OFFSET 9.49185 0 -2.77289
    CHANNELS 3 Zrotation Xrotation Yrotation
    JOINT LeftLeg
    {
      OFFSET 41.2118 -4.74087e-05 -1.38042e-05
      CHANNELS 3 Zrotation Xrotation Yrotation
      JOINT LeftFoot
      {
        OFFSET 45.6092 0 0
        CHANNELS 3 Zrotation Xrotation Yrotation
        JOINT LeftToeBase
        {
          OFFSET 17.0969 0 0
          CHANNELS 3 Zrotation Xrotation Yrotation
          End Site
          {
            OFFSET 7.67878 0 0
          }
        }
      }
    }
  }
}
MOTION
Frames:	4
Frame Time:	0.00833333
6.77831 94.0173 -0.421957 -179.387 -85.3047 -179.001 0.384771 -11.6143 1.65094 0.0636174 5.08192 0.718563 -1.48014 10.4837 -1.38588 0.172612 0.436433 -0.902862 -0.357757 10.7671 -1.93103 1.48799 -6.98822 4.3236 4.4024 7.50372 163.748 -28.0287 -7.94522 -59.9405 -28.7901 -2.35353e-05 5.96877e-05 -2.34263 -6.66381 -11.8158 -1.19428e-08 -90 -1.19428e-08 165 10 -180 8.34123e-07 -9.1424e-07 2.37274e-06 -5.4833 7.19099 14.4894 -38.2964 12.096 61.9546 -29.3885 -4.80708e-05 0.000104032 -2.63469 9.14096 6.38373 -2.38856e-08 90 2.38856e-08 165 10 -180 3.92151e-08 -4.37844e-08 1.0172e-07 -8.63024 6.1529 95.0778 1.21217 -0.0984226 0.000158145 -74.0225 7.25489 2.94921 -19.4824 -2.61986e-07 -5.28026e-07 6.96583 9.09499 86.309 0.272472 0.0190373 7.56266e-05 -76.0236 -2.85183 0.0900118 -19.7776 -2.38752e-07 -8.91947e-06 
6.75635 94.0217 -0.450088 -179.609 -85.2832 -179.226 0.38673 -11.5733 1.65919 0.0621797 5.1018 0.72626 -1.5307 10.4888 -1.4288 0.169792 0.44079 -0.911818 -0.375867 10.7614 -2.01486 1.5269 -7.04926 4.29933 4.40203 7.4966 163.772 -27.8338 -7.82508 -59.9505 -28.7899 -2.85664e-05 6.44466e-05 -2.34041 -6.62985 -11.8277 -5.97139e-09 -90 -5.97139e-09 165 10 -180 1.65484e-06 -1.51361e-07 1.3914e-06 -5.52813 7.16835 14.4347 -38.5527 12.183 61.8362 -29.4829 -5.12047e-05 0.000113916 -2.69073 9.0915 6.47657 -1.59028e-15 90 -0 165 10 -180 3.48578e-08 -3.89195e-08 9.04176e-08 -8.6628 6.152 95.0697 1.22658 -0.0976998 0.000161859 -74.0221 7.22124 2.94805 -19.487 4.01303e-07 2.42213e-06 6.94016 9.09901 86.3002 0.271288 0.0191322 8.96638e-05 -76.0059 -2.84358 0.0773951 -19.7614 -6.25679e-07 -3.53009e-06 
6.73258 94.025 -0.475214 -179.841 -85.2629 -179.457 0.3881 -11.532 1.66407 0.060563 5.12304 0.731797 -1.57989 10.4924 -1.46874 0.167126 0.444803 -0.919552 -0.396904 10.7526 -2.09988 1.56459 -7.10784 4.27956 4.3972 7.485 163.794 -27.6595 -7.72386 -59.9431 -28.7985 -3.13991e-05 6.6391e-05 -2.3394 -6.63899 -11.8429 2.98569e-08 -90 2.98569e-08 165 10 -180 2.38363e-06 6.19926e-07 3.3277e-07 -5.58198 7.1472 14.3759 -38.8141 12.2816 61.7162 -29.5915 -4.86239e-05 0.000114071 -2.75286 8.98571 6.57442 3.58283e-08 90 -3.58283e-08 165 10 -180 1.30717e-08 -1.45948e-08 3.39066e-08 -8.6973 6.15199 95.0593 1.23631 -0.0967796 0.000149045 -74.0161 7.18602 2.94449 -19.4926 9.80518e-07 4.86758e-06 6.9204 9.0984 86.2882 0.273428 0.0192243 9.5012e-05 -75.989 -2.83332 0.070667 -19.7449 -1.0028e-06 1.65996e-06 
6.71361 94.0244 -0.50806 179.889 -85.2522 -179.725 0.385735 -11.4963 1.66284 0.0593939 5.1428 0.736678 -1.62794 10.4953 -1.50288 0.164955 0.448167 -0.927111 -0.420633 10.7394 -2.18606 1.60484 -7.15901 4.26343 4.38812 7.46935 163.804 -27.5415 -7.66479 -59.911 -28.816 -2.95274e-05 6.07761e-05 -2.3409 -6.66642 -11.8462 5.97138e-09 -90 5.97139e-09 165 10 -180 2.68034e-06 1.06285e-06 -3.55366e-07 -5.63971 7.12748 14.3131 -39.0314 12.3641 61.5979 -29.7081 -3.98393e-05 0.000102065 -2.80524 8.89039 6.65769 7.95139e-16 90 -0 165 10 -180 -2.54444e-14 3.18055e-14 2.22639e-14 -8.7416 6.1509 95.0455 1.2293 -0.0956345 0.000119933 -73.9974 7.15428 2.92864 -19.4973 1.16504e-06 6.01084e-06 6.91845 9.08336 86.2709 0.277988 0.0193127 7.51551e-05 -75.97 -2.82774 0.0867699 -19.7353 -1.13841e-06 4.21379e-06 
